# xmcd
#
# Track frame offsets:
#	150
#	12335
#	22461
#	31613
#	41254
#	52781
#	62878
#	73462
#	82822
#	94250
#	103545
#	113346
#	122119
#	131610
#	142887
#	154716
#	166640
#	178106
#	190138
#	200827
#	211789
#	222553
#	234745
#	243168
#	254600
#	263213
#
# Disc length: 3639 seconds
# Revision: 0
# Processed by: cddbd v1.5.2PL0 Copyright (c) Steve Scherf et al.
# Submitted via: dBpowerAMP V12.0
#
DISCID=6d0e351a
DTITLE=Various Artist - 4 STAR Records, Part 3
DYEAR=1958
DGENRE=Country
TTITLE0=Carl Belew - I Can't Forget
TTITLE1=Carl Belew - Stop the World
TTITLE2=Wayland Chandler - Play Boy
TTITLE3=Wayland Chandler - Little Lover
TTITLE4=The Peacocks - My New Hi-Fi
TTITLE5=The Peacocks - Teen Hoppers Ball
TTITLE6=Carl Belew - 24 Hour Night
TTITLE7=Carl Belew - Everytime I'm Kissing You
TTITLE8=Bobby Lile - A Labor of Love
TTITLE9=Bobby Lile - Book Worm
TTITLE10=Carl Belew - No Love Tonight
TTITLE11=Carl Belew - My Baby's Not Here
TTITLE12=Sammy Masters - Jodie
TTITLE13=Sammy Masters - If I Could See the World
TTITLE14=Jimmy Dean - Release Me
TTITLE15=Jimmy Dean - Bumming Around
TTITLE16=Charlie Ryan - Hot Rod Lincoln
TTITLE17=Charlie Ryan - Thru the Mill
TTITLE18=Bobby Lile - All the Time
TTITLE19=Bobby Lile - 	Kathy
TTITLE20=The Miller Brothers - Back Roads
TTITLE21=The Miller Brothers - I Want A Be Free
TTITLE22=Arkie Shibley - Pick Pick Pickin' (My Guitar)
TTITLE23=Arkie Shibley - I'm a Poor Oakie
TTITLE24=Chief Little Chief - It's For Certain
TTITLE25=Chief Little Chief - Come On Darlin'
EXTD=
EXTT0=
EXTT1=
EXTT2=
EXTT3=
EXTT4=
EXTT5=
EXTT6=
EXTT7=
EXTT8=
EXTT9=
EXTT10=
EXTT11=
EXTT12=
EXTT13=
EXTT14=
EXTT15=
EXTT16=
EXTT17=
EXTT18=
EXTT19=
EXTT20=
EXTT21=
EXTT22=
EXTT23=
EXTT24=
EXTT25=
PLAYORDER=
